
<svg xmlns="http://www.w3.org/2000/svg" style="display:none">
  <symbol id="home" viewBox="0 0 24 24">
    <path d="M3 10.5 12 3l9 7.5v9a1.5 1.5 0 0 1-1.5 1.5H4.5A1.5 1.5 0 0 1 3 19.5v-9Z" fill="none" stroke="currentColor" stroke-width="1.5"/>
    <path d="M9 21v-6h6v6" fill="none" stroke="currentColor" stroke-width="1.5"/>
  </symbol>
  <symbol id="search" viewBox="0 0 24 24">
    <circle cx="11" cy="11" r="7" fill="none" stroke="currentColor" stroke-width="1.5"/>
    <path d="M20 20l-3.5-3.5" fill="none" stroke="currentColor" stroke-width="1.5"/>
  </symbol>
  <symbol id="plus" viewBox="0 0 24 24">
    <path d="M12 5v14M5 12h14" fill="none" stroke="currentColor" stroke-width="1.5" stroke-linecap="round"/>
  </symbol>
  <symbol id="msg" viewBox="0 0 24 24">
    <path d="M4 5h16v12H8l-4 4V5Z" fill="none" stroke="currentColor" stroke-width="1.5" stroke-linejoin="round"/>
  </symbol>
  <symbol id="user" viewBox="0 0 24 24">
    <circle cx="12" cy="8" r="4" fill="none" stroke="currentColor" stroke-width="1.5"/>
    <path d="M4 21c1.8-4 6-5 8-5s6.2 1 8 5" fill="none" stroke="currentColor" stroke-width="1.5"/>
  </symbol>
  <symbol id="heart" viewBox="0 0 24 24">
    <path d="M12 20s-7.5-4.5-9-9c-1.2-3.6 1.1-6 4-6 2.3 0 4 1.8 5 3 1-1.2 2.7-3 5-3 2.9 0 5.2 2.4 4 6-1.5 4.5-9 9-9 9Z" fill="none" stroke="currentColor" stroke-width="1.5"/>
  </symbol>
</svg>
